<?xml version="1.0" encoding="UTF-8"?>
<svg width="88px" height="123px" viewBox="0 0 88 123" version="1.1" xmlns="http://www.w3.org/2000/svg" xmlns:xlink="http://www.w3.org/1999/xlink">
    <!-- Generator: Sketch 48.2 (47327) - http://www.bohemiancoding.com/sketch -->
    <title>Path_3</title>
    <desc>Created with Sketch.</desc>
    <defs></defs>
    <g id="Desktop" stroke="none" stroke-width="1" fill="none" fill-rule="evenodd" transform="translate(-176.000000, -468.000000)">
        <g id="blob-3" transform="translate(170.000000, 455.000000)" fill="#D7E4CD" stroke="#000000">
            <path d="M80.5423612,14.5151185 C69.5883766,11.06795 52.2482499,25.7782419 44.1411677,33.1914472 C36.0340854,40.6046525 55.5321887,52.0932339 45.7791544,65.754173 C36.0261202,79.4151121 16.8673763,71.9339002 12.2580087,76.6789763 C7.64864111,81.4240524 14.1452246,81.2047721 15.2430326,97.189336 C16.3408405,113.1739 -3.84097121,118.3182 15.2430326,129.498285 C34.3270364,140.67837 48.592857,131.724839 54.1308242,129.498285 C59.6687914,127.271731 60.9099357,125.541649 61.8186971,120.360555 C62.7274584,115.179462 78.5505231,118.396371 80.5423612,105.634574 C82.5341992,92.8727779 69.5642807,86.6954088 70.3932482,72.4709331 C71.2222156,58.2464574 73.3736417,54.5713091 76.9026853,48.3753378 C80.4317288,42.1793666 92.4483852,39.5477551 92.977086,32.4172255 C93.5057869,25.2866958 84.7516627,15.8397662 80.5423612,14.5151185 Z" id="Path_3"></path>
        </g>
    </g>
</svg>