<?xml version="1.0" encoding="UTF-8"?>
<svg width="96px" height="135px" viewBox="0 0 96 135" version="1.1" xmlns="http://www.w3.org/2000/svg" xmlns:xlink="http://www.w3.org/1999/xlink">
    <!-- Generator: Sketch 48.2 (47327) - http://www.bohemiancoding.com/sketch -->
    <title>Path_4</title>
    <desc>Created with Sketch.</desc>
    <defs></defs>
    <g id="Desktop" stroke="none" stroke-width="1" fill="none" fill-rule="evenodd" transform="translate(-172.000000, -463.000000)">
        <g id="blob-3" transform="translate(170.000000, 455.000000)" fill="#750000" stroke="#000000">
            <path d="M83.5609789,9.53702167 C71.5615856,5.74715032 50.3422666,22.9762043 41.4614737,31.1263991 C32.5806807,39.2765938 52.6731207,52.8008229 43.1163726,65.8320896 C33.5596246,78.8633564 14.4544978,71.5006083 9.43375059,76.6843721 C4.41300336,81.8681359 10.8271391,82.8566783 12.0297179,100.43036 C13.2322967,118.004041 -8.87559441,123.659766 12.0297179,135.951328 C32.9350302,148.24289 48.5623293,138.399237 54.6288202,135.951328 C60.695311,133.503419 62.0549056,131.601339 63.0503958,125.905163 C64.0458861,120.208988 81.3790471,123.745708 83.5609789,109.715188 C85.7429108,95.6846678 71.5351901,88.8931708 72.4432712,73.254558 C73.3513523,57.6159452 73.6447566,56.225598 78.4245977,49.0056911 C83.2044388,41.7857841 99.8920239,40.185651 96.5647012,25.9312304 C93.2373784,11.6768098 88.172001,10.9933603 83.5609789,9.53702167 Z" id="Path_4"></path>
        </g>
    </g>
</svg>