<?xml version="1.0" encoding="UTF-8"?>
<svg width="70px" height="101px" viewBox="0 0 70 101" version="1.1" xmlns="http://www.w3.org/2000/svg" xmlns:xlink="http://www.w3.org/1999/xlink">
    <!-- Generator: Sketch 48.2 (47327) - http://www.bohemiancoding.com/sketch -->
    <title>Path_1</title>
    <desc>Created with Sketch.</desc>
    <defs></defs>
    <g id="Desktop" stroke="none" stroke-width="1" fill="none" fill-rule="evenodd" transform="translate(-183.000000, -482.000000)">
        <g id="blob-3" transform="translate(170.000000, 455.000000)" fill="#E9FF00" stroke="#000000">
            <path d="M73.4671002,28.7168436 C64.609597,25.9048842 55.2926731,31.8656502 48.737204,37.9128256 C42.181735,43.9600011 57.7523899,58.1571442 49.8659873,69.3007848 C41.9795848,80.4444254 20.9221884,77.1107416 17.768499,80.6373926 C14.6148096,84.1640437 19.7777012,83.0478284 20.6653999,96.0869199 C21.5530985,109.126011 5.23388057,113.392152 20.6653999,122.512085 C36.0969192,131.632018 47.6324066,124.328352 52.1104632,122.512085 C56.5885197,120.695818 57.5921216,119.284537 58.3269552,115.058163 C59.0617889,110.831788 71.8564797,113.455918 73.4671002,103.045735 C75.0777207,92.6355527 64.5901128,87.5964862 65.2604243,75.9931518 C65.9307358,64.3898174 69.8672223,54.9388065 72.7426137,50.1031668 C75.902124,44.7897149 81.5491038,44.5027127 81.9766167,38.6861244 C82.4041295,32.869536 76.8707841,29.7973988 73.4671002,28.7168436 Z" id="Path_1"></path>
        </g>
    </g>
</svg>