<?xml version="1.0" encoding="UTF-8"?>
<svg width="80px" height="113px" viewBox="0 0 80 113" version="1.1" xmlns="http://www.w3.org/2000/svg" xmlns:xlink="http://www.w3.org/1999/xlink">
    <!-- Generator: Sketch 48.2 (47327) - http://www.bohemiancoding.com/sketch -->
    <title>Path_2</title>
    <desc>Created with Sketch.</desc>
    <defs></defs>
    <g id="Desktop" stroke="none" stroke-width="1" fill="none" fill-rule="evenodd" transform="translate(-179.000000, -475.000000)">
        <g id="blob-3" transform="translate(170.000000, 455.000000)" fill="#CCB005" stroke="#000000">
            <path d="M77.140288,21.5963173 C67.1398792,18.43758 52.9808322,28.5326365 45.5794947,35.3255649 C38.1781572,42.1184932 56.7480852,54.7333318 47.8440806,67.2512342 C38.9400759,79.7691366 18.7782279,74.2002997 14.6258902,78.3229403 C10.4735524,82.4455809 16.5232124,82.705921 17.525453,97.353026 C18.5276936,112.000131 0.102766377,116.713998 17.525453,126.958624 C34.9481396,137.20325 47.9720797,128.998878 53.027951,126.958624 C58.0838223,124.91837 59.2169215,123.333047 60.0465725,118.585465 C60.8762236,113.837884 75.3218452,116.785628 77.140288,105.091635 C78.9587309,93.3976426 67.1178809,87.7371457 67.8746844,74.7028589 C68.6314878,61.6685721 71.1608246,54.2085545 74.5856272,48.9644 C80.3871833,40.0808935 87.4950382,41.794274 87.9777141,35.2603693 C88.46039,28.7264646 80.9831578,22.8101293 77.140288,21.5963173 Z" id="Path_2"></path>
        </g>
    </g>
</svg>