<?xml version="1.0" encoding="UTF-8"?>
<svg width="99px" height="143px" viewBox="0 0 99 143" version="1.1" xmlns="http://www.w3.org/2000/svg" xmlns:xlink="http://www.w3.org/1999/xlink">
    <!-- Generator: Sketch 48.2 (47327) - http://www.bohemiancoding.com/sketch -->
    <title>Path_5</title>
    <desc>Created with Sketch.</desc>
    <defs></defs>
    <g id="Desktop" stroke="none" stroke-width="1" fill="none" fill-rule="evenodd" transform="translate(-171.000000, -460.000000)">
        <g id="blob-3" transform="translate(170.000000, 455.000000)" fill="#FBF7EB" stroke="#000000">
            <path d="M86.5057328,6.57813603 C73.9856375,2.56055461 48.1605183,20.4938642 38.894352,29.1337541 C29.6281857,37.7736439 52.4850448,48.6315307 41.3376017,64.552985 C30.1901587,80.4744393 13.200657,69.4923029 7.96203936,74.9875272 C2.72342167,80.4827514 8.87848763,83.4459901 10.1332512,102.075566 C11.3880147,120.705142 -9.94203597,127.557814 11.8704421,140.5879 C33.6829201,153.617987 49.9883508,143.182889 56.3180911,140.5879 C62.6478314,137.992912 64.0664243,135.976548 65.1051129,129.938124 C66.1438015,123.8997 84.2291181,127.64892 86.5057328,112.775392 C88.7823476,97.9018644 73.9580965,90.7023081 74.9055829,74.1240672 C75.8530693,57.5458263 75.9377358,52.791033 80.9333414,48.0266488 C85.928947,43.2622645 100.604774,37.1894369 98.8561665,25.2403345 C97.1075591,13.2912321 91.3168457,8.12197712 86.5057328,6.57813603 Z" id="Path_5"></path>
        </g>
    </g>
</svg>