<?xml version="1.0" encoding="UTF-8"?>
<svg width="108px" height="151px" viewBox="0 0 108 151" version="1.1" xmlns="http://www.w3.org/2000/svg" xmlns:xlink="http://www.w3.org/1999/xlink">
    <!-- Generator: Sketch 48.2 (47327) - http://www.bohemiancoding.com/sketch -->
    <title>Path_6</title>
    <desc>Created with Sketch.</desc>
    <defs></defs>
    <g id="Desktop" stroke="none" stroke-width="1" fill="none" fill-rule="evenodd" transform="translate(-169.000000, -454.000000)">
        <g id="blob-3" transform="translate(170.000000, 455.000000)" fill="#E4B789" stroke="#000000">
            <path d="M90.8069508,0.574575535 C77.4534561,-3.67199412 46.3930355,16.7124653 36.5100674,25.844799 C26.6270992,34.9771327 51.4334861,46.8020629 39.5440142,63.630985 C27.6545423,80.4599071 11.049881,66.1619581 5.46255507,71.9703912 C-0.124770885,77.7788242 5.66304471,82.5714993 7.00133151,102.262897 C8.3396183,121.954294 -12.0608578,128.449677 11.2035665,142.222433 C34.4679908,155.995189 51.8587914,144.965327 58.6098705,142.222433 C65.3609496,139.479539 66.8739711,137.348249 67.9817999,130.965656 C69.0896287,124.583063 88.3787934,128.545975 90.8069508,112.824708 C93.2351082,97.1034405 77.4240819,89.4935344 78.4346376,71.9703912 C79.4451934,54.4472479 78.599703,52.2149883 84.165485,46.8219611 C90.1712954,41.0025633 107.093491,34.927773 105.944213,19.8322416 C104.794935,4.7367103 95.9383151,2.20641023 90.8069508,0.574575535 Z" id="Path_6"></path>
        </g>
    </g>
</svg>