<?xml version="1.0" encoding="UTF-8"?>
<svg width="46px" height="49px" viewBox="0 0 46 49" version="1.1" xmlns="http://www.w3.org/2000/svg" xmlns:xlink="http://www.w3.org/1999/xlink">
    <!-- Generator: Sketch 48.2 (47327) - http://www.bohemiancoding.com/sketch -->
    <title>Path_1</title>
    <desc>Created with Sketch.</desc>
    <defs></defs>
    <g id="Desktop" stroke="none" stroke-width="1" fill="none" fill-rule="evenodd" transform="translate(-682.000000, -582.000000)">
        <g id="blob-2" transform="translate(670.000000, 566.000000)" fill="#FBF7EB" stroke="#000000">
            <path d="M27.1069233,22.7662548 C31.1244929,17.8922427 34.9988558,17 38.4968469,17 C41.994838,17 47.5953467,21.4483588 46.7096402,29.8843128 C45.8239337,38.3202669 38.5170627,35.5722938 41.4762722,44.9918349 C44.4354817,54.411376 49.6245804,43.019678 55.1455045,43.8759488 C60.6664286,44.7322196 52.8699432,57.281116 44.7453761,61.7231897 C40.0525643,64.2889653 36.6421469,64.4935556 32.625522,63.2910132 C29.688248,62.4116191 30.531035,57.2091319 28.6289338,56.3141087 C24.1257722,54.195171 12.0074641,59.5945103 13.0650828,47.8531619 C14.1227015,36.1118135 23.0893536,27.640267 27.1069233,22.7662548 Z" id="Path_1"></path>
        </g>
    </g>
</svg>