<?xml version="1.0" encoding="UTF-8"?>
<svg width="64px" height="70px" viewBox="0 0 64 70" version="1.1" xmlns="http://www.w3.org/2000/svg" xmlns:xlink="http://www.w3.org/1999/xlink">
    <!-- Generator: Sketch 48.2 (47327) - http://www.bohemiancoding.com/sketch -->
    <title>Path_4</title>
    <desc>Created with Sketch.</desc>
    <defs></defs>
    <g id="Desktop" stroke="none" stroke-width="1" fill="none" fill-rule="evenodd" transform="translate(-672.000000, -568.000000)">
        <g id="blob-2" transform="translate(670.000000, 566.000000)" fill="#FBF7EB" stroke="#000000">
            <path d="M24.1189109,11.3426666 C30.1334538,4.29090432 35.9336075,3 41.1703102,3 C46.4070129,3 54.7913105,9.43592335 53.4653547,21.6411335 C52.1393989,33.8463436 43.281578,34.8057354 46.5269251,41.7370663 C49.7722722,48.6683972 53.96821,36.2142994 61.7033421,38.4805566 C69.4384743,40.7468139 62.6876981,61.2790615 50.5247334,67.7058915 C43.4993126,71.4180774 38.3937131,71.7140804 32.3805845,69.9742319 C27.9833089,68.701917 29.2450117,61.1749143 26.397452,59.8799871 C19.6559488,56.8142899 1.51411423,64.6261 3.09743288,47.6386172 C4.68075153,30.6511344 18.1043679,18.3944288 24.1189109,11.3426666 Z" id="Path_4"></path>
        </g>
    </g>
</svg>