<?xml version="1.0" encoding="UTF-8"?>
<svg width="57px" height="60px" viewBox="0 0 57 60" version="1.1" xmlns="http://www.w3.org/2000/svg" xmlns:xlink="http://www.w3.org/1999/xlink">
    <!-- Generator: Sketch 48.2 (47327) - http://www.bohemiancoding.com/sketch -->
    <title>Path_2</title>
    <desc>Created with Sketch.</desc>
    <defs></defs>
    <g id="Desktop" stroke="none" stroke-width="1" fill="none" fill-rule="evenodd" transform="translate(-676.000000, -574.000000)">
        <g id="blob-2" transform="translate(670.000000, 566.000000)" fill="#CCB005" stroke="#000000">
            <path d="M25.2542969,16.1158038 C30.4530144,10.1010654 35.466423,9 39.9928082,9 C44.5191934,9 51.7662271,14.489464 50.6201267,24.8997903 C49.4740264,35.3101166 39.2904014,33.800074 42.7887607,43.6619528 C46.28712,53.5238316 52.7915478,40.1218088 59.4774702,42.054793 C66.1633926,43.9877771 58.5915319,58.7086113 48.0783776,64.1903192 C42.0058997,67.3565955 37.5928346,67.6090686 32.3953396,66.1250801 C28.5945198,65.0398704 29.6850825,58.6197798 27.2237719,57.5152831 C21.3967006,54.9004237 5.71566294,61.5634383 7.08421688,47.0741147 C8.45277082,32.5847911 20.0555794,22.1305422 25.2542969,16.1158038 Z" id="Path_2"></path>
        </g>
    </g>
</svg>