<?xml version="1.0" encoding="UTF-8"?>
<svg width="68px" height="76px" viewBox="0 0 68 76" version="1.1" xmlns="http://www.w3.org/2000/svg" xmlns:xlink="http://www.w3.org/1999/xlink">
    <!-- Generator: Sketch 48.2 (47327) - http://www.bohemiancoding.com/sketch -->
    <title>Path_5</title>
    <desc>Created with Sketch.</desc>
    <defs></defs>
    <g id="Desktop" stroke="none" stroke-width="1" fill="none" fill-rule="evenodd" transform="translate(-669.000000, -565.000000)">
        <g id="blob-2" transform="translate(670.000000, 566.000000)" fill="#4C735C" stroke="#000000">
            <path d="M22.8912452,9.07878419 C29.4105386,1.40480764 35.697451,-7.35811861e-16 41.3736265,0 C47.049802,4.90541241e-16 56.1377239,7.00379894 54.7004917,20.2859394 C53.2632595,33.5680798 46.7515918,34.1099933 47.8425692,39.8621662 C48.9335466,45.6143392 52.9436321,34.564208 61.7993168,38.3822979 C70.6550016,42.2003878 64.6967896,63.4213316 51.5130886,70.4152349 C43.8980826,74.4549666 38.3640127,74.7770875 31.8462523,72.8837229 C27.07995,71.499145 28.447537,63.3079949 25.3610054,61.8988095 C18.0537439,58.5626096 -1.61058379,67.0636971 0.105609613,48.5773187 C1.82180301,30.0909403 16.3719518,16.7527607 22.8912452,9.07878419 Z" id="Path_5"></path>
        </g>
    </g>
</svg>