<?xml version="1.0" encoding="UTF-8"?>
<svg width="60px" height="65px" viewBox="0 0 60 65" version="1.1" xmlns="http://www.w3.org/2000/svg" xmlns:xlink="http://www.w3.org/1999/xlink">
    <!-- Generator: Sketch 48.2 (47327) - http://www.bohemiancoding.com/sketch -->
    <title>Path_3</title>
    <desc>Created with Sketch.</desc>
    <defs></defs>
    <g id="Desktop" stroke="none" stroke-width="1" fill="none" fill-rule="evenodd" transform="translate(-674.000000, -571.000000)">
        <g id="blob-2" transform="translate(670.000000, 566.000000)" fill="#FF3838" stroke="#000000">
            <path d="M24.5236554,13.7292352 C30.0838788,7.19598488 35.4459074,6 40.2870461,6 C45.1281849,6 52.8791593,11.9626937 51.653362,23.2704619 C50.4275647,34.5782301 41.0356355,34.5078708 44.3788213,42.7176278 C47.7220071,50.9273848 52.9711014,38.7130965 60.1219462,40.8127172 C67.2727911,42.9123379 60.1790789,59.9938364 48.9348659,65.9481054 C42.440123,69.3873365 37.7201843,69.6615745 32.1612684,68.049656 C28.0961491,66.8708937 29.2625468,59.897347 26.6300828,58.6976351 C20.3978113,55.8573568 3.62635333,63.0947692 5.09007311,47.3563659 C6.5537929,31.6179627 18.9634319,20.2624855 24.5236554,13.7292352 Z" id="Path_3"></path>
        </g>
    </g>
</svg>