<?xml version="1.0" encoding="UTF-8"?>
<svg width="192px" height="213px" viewBox="0 0 192 213" version="1.1" xmlns="http://www.w3.org/2000/svg" xmlns:xlink="http://www.w3.org/1999/xlink">
    <!-- Generator: Sketch 48.2 (47327) - http://www.bohemiancoding.com/sketch -->
    <title>Path_4</title>
    <desc>Created with Sketch.</desc>
    <defs></defs>
    <g id="Desktop" stroke="none" stroke-width="1" fill="none" fill-rule="evenodd" transform="translate(-692.000000, 0.000000)">
        <g id="blob-5" transform="translate(780.781429, 113.299037) rotate(-177.000000) translate(-780.781429, -113.299037) translate(677.781429, -6.200963)" fill="#750000" stroke="#000000">
            <path d="M161.455305,19.2397855 C137.642337,11.7618621 95.532293,45.7570913 77.9082317,61.8385163 C60.2841705,77.9199413 100.157906,104.605055 81.1924025,130.317488 C62.2268986,156.029922 24.3124999,141.502234 14.3487549,151.730494 C4.3850098,161.958754 17.1139544,163.90928 19.5004893,198.584506 C20.7268597,216.403089 6.65117486,227.911967 7.18942382,238.182369 C15.0285388,237.771539 13.3439564,237.859824 30.6384192,236.953459 C75.6180294,234.596178 89.8326276,233.851222 102.343523,233.195554 C114.854417,232.539886 108.034134,232.897322 124.405108,232.039355 C131.9019,231.646465 138.716368,231.289334 155.247148,230.422993 C158.149153,227.198469 160.562415,222.613356 161.455305,216.904714 C165.78538,189.22062 137.589954,175.820088 139.392054,144.963012 C141.194154,114.105936 141.776419,111.362595 151.262083,97.1167522 C160.747746,82.8709096 193.864499,79.7136328 187.261379,51.5877533 C180.658259,23.4618737 170.605945,22.1133365 161.455305,19.2397855 Z" id="Path_4"></path>
        </g>
    </g>
</svg>