<?xml version="1.0" encoding="UTF-8"?>
<svg width="198px" height="219px" viewBox="0 0 198 219" version="1.1" xmlns="http://www.w3.org/2000/svg" xmlns:xlink="http://www.w3.org/1999/xlink">
    <!-- Generator: Sketch 48.2 (47327) - http://www.bohemiancoding.com/sketch -->
    <title>Path_5</title>
    <desc>Created with Sketch.</desc>
    <defs></defs>
    <g id="Desktop" stroke="none" stroke-width="1" fill="none" fill-rule="evenodd" transform="translate(-688.000000, 0.000000)">
        <g id="blob-5" transform="translate(780.781429, 113.299037) rotate(-177.000000) translate(-780.781429, -113.299037) translate(677.781429, -6.200963)" fill="#CCB005" stroke="#000000">
            <path d="M166.546108,13.0007107 C141.754067,5.05028512 90.6156865,40.5386621 72.2670106,57.6362128 C53.9183346,74.7337634 99.1790267,96.2205268 77.1050845,127.727626 C55.0311423,159.234726 21.3888733,137.502084 11.0154681,148.37663 C0.642062848,159.251175 12.8302005,165.115153 15.314858,201.981377 C16.3466621,217.29082 3.00078736,228.504193 4.5940192,238.397106 C21.0777236,237.533231 108.57051,232.728861 124.788996,232.019237 C141.007481,231.309612 145.51929,230.792458 164.803244,229.781829 C165.576693,227.807489 166.170219,225.609528 166.546108,223.155353 C171.054215,193.722004 141.699531,179.474742 143.575725,146.667921 C145.451918,113.861101 145.619573,104.451801 155.511771,95.0235209 C165.403968,85.5952408 194.464745,73.5776712 191.002188,49.9314921 C187.539631,26.285313 176.072977,16.0558309 166.546108,13.0007107 Z" id="Path_5"></path>
        </g>
    </g>
</svg>