<?xml version="1.0" encoding="UTF-8"?>
<svg width="218px" height="230px" viewBox="0 0 218 230" version="1.1" xmlns="http://www.w3.org/2000/svg" xmlns:xlink="http://www.w3.org/1999/xlink">
    <!-- Generator: Sketch 48.2 (47327) - http://www.bohemiancoding.com/sketch -->
    <title>Path_6</title>
    <desc>Created with Sketch.</desc>
    <defs></defs>
    <g id="Desktop" stroke="none" stroke-width="1" fill="none" fill-rule="evenodd" transform="translate(-673.000000, 0.000000)">
        <g id="blob-5" transform="translate(780.781429, 113.299037) rotate(-177.000000) translate(-780.781429, -113.299037) translate(677.781429, -6.200963)" fill="#D7E4CD" stroke="#000000">
            <path d="M175.378602,1.13694588 C148.891112,-7.2659874 87.2808286,33.0699229 67.6773445,51.1406003 C48.0738603,69.2112778 97.278877,92.6099519 73.6953674,125.910315 C50.1118578,159.210677 17.1754757,130.918498 6.09266593,142.41198 C-4.99014383,153.905463 6.49034966,163.389007 9.14492505,202.353515 C10.1925453,217.730742 4.52435648,229.041166 0.114325178,238.774842 C13.5960503,238.068295 152.658691,230.668428 173.781382,229.561435 C174.479154,227.65701 175.021041,225.56223 175.378602,223.252783 C180.195004,192.144201 148.832846,177.086039 150.837346,142.41198 C152.841847,107.737922 151.164764,103.320821 162.20484,92.6493257 C174.11774,81.1341463 207.683971,69.1136069 205.404306,39.2432049 C203.124641,9.37280295 185.556983,4.36595169 175.378602,1.13694588 Z" id="Path_6"></path>
        </g>
    </g>
</svg>