<?xml version="1.0" encoding="UTF-8"?>
<svg width="145px" height="176px" viewBox="0 0 145 176" version="1.1" xmlns="http://www.w3.org/2000/svg" xmlns:xlink="http://www.w3.org/1999/xlink">
    <!-- Generator: Sketch 48.2 (47327) - http://www.bohemiancoding.com/sketch -->
    <title>Path_1</title>
    <desc>Created with Sketch.</desc>
    <defs></defs>
    <g id="Desktop" stroke="none" stroke-width="1" fill="none" fill-rule="evenodd" transform="translate(-722.000000, 0.000000)">
        <g id="blob-5" transform="translate(780.781429, 113.299037) rotate(-177.000000) translate(-780.781429, -113.299037) translate(677.781429, -6.200963)" fill="#E9FF00" stroke="#000000">
            <path d="M141.127336,57.5408141 C123.521015,51.9728602 105.00149,63.7757583 91.9709903,75.7497555 C78.9404906,87.7237527 109.890742,115.835481 94.2147062,137.900976 C78.5386707,159.966472 36.6822613,153.365453 30.4135797,160.348566 C24.1448981,167.331679 34.4073303,165.121464 36.1718352,190.940137 C37.9363401,216.75881 8.29051085,238.124664 34.4178915,236.755386 C60.5452721,235.386108 92.6136823,233.705474 99.2174693,233.359384 C103.027002,233.159735 109.08507,232.842245 109.08507,232.842245 C109.08507,232.842245 109.08507,232.842245 111.032822,228.505048 C113.825613,222.286143 137.925858,225.332448 141.127336,204.719271 C144.328814,184.106093 123.482286,174.12825 124.814684,151.152516 C126.147082,128.176782 133.971752,109.462859 139.687253,99.8878202 C145.967505,89.3666671 157.192174,88.7983748 158.041953,77.2809625 C158.891733,65.7635501 147.892939,59.6804188 141.127336,57.5408141 Z" id="Path_1"></path>
        </g>
    </g>
</svg>