<?xml version="1.0" encoding="UTF-8"?>
<svg width="164px" height="190px" viewBox="0 0 164 190" version="1.1" xmlns="http://www.w3.org/2000/svg" xmlns:xlink="http://www.w3.org/1999/xlink">
    <!-- Generator: Sketch 48.2 (47327) - http://www.bohemiancoding.com/sketch -->
    <title>Path_2</title>
    <desc>Created with Sketch.</desc>
    <defs></defs>
    <g id="Desktop" stroke="none" stroke-width="1" fill="none" fill-rule="evenodd" transform="translate(-710.000000, 0.000000)">
        <g id="blob-5" transform="translate(780.781429, 113.299037) rotate(-177.000000) translate(-780.781429, -113.299037) translate(677.781429, -6.200963)" fill="#FBF7EB" stroke="#000000">
            <path d="M148.48513,43.0739439 C128.723268,36.8206991 100.743499,56.805539 86.1176755,70.253268 C71.4918523,83.700997 108.187988,108.674164 90.5927359,133.455429 C72.997484,158.236694 33.155547,147.212257 24.9500899,155.373709 C16.7446328,163.53516 28.6993986,164.050547 30.6799317,193.046922 C32.3467724,217.450622 9.55450465,231.727751 18.1315003,237.608919 C19.8911129,237.516702 24.6796225,237.549131 29.2293735,237.027304 C55.5217527,235.649379 79.3970906,234.398126 100.855387,233.273544 C105.202343,233.04573 110.062519,232.791019 115.435915,232.509411 C117.075393,223.110785 144.891695,231.516982 148.48513,208.366783 C152.078565,185.216584 128.679797,174.010691 130.175321,148.207157 C131.670844,122.403623 136.66908,107.63528 143.436851,97.2536058 C154.901337,79.6672303 168.947208,83.0591512 169.901027,70.1242025 C170.854845,57.1892538 156.079046,45.4768862 148.48513,43.0739439 Z" id="Path_2"></path>
        </g>
    </g>
</svg>