<?xml version="1.0" encoding="UTF-8"?>
<svg width="179px" height="204px" viewBox="0 0 179 204" version="1.1" xmlns="http://www.w3.org/2000/svg" xmlns:xlink="http://www.w3.org/1999/xlink">
    <!-- Generator: Sketch 48.2 (47327) - http://www.bohemiancoding.com/sketch -->
    <title>Path_3</title>
    <desc>Created with Sketch.</desc>
    <defs></defs>
    <g id="Desktop" stroke="none" stroke-width="1" fill="none" fill-rule="evenodd" transform="translate(-700.000000, 0.000000)">
        <g id="blob-5" transform="translate(780.781429, 113.299037) rotate(-177.000000) translate(-780.781429, -113.299037) translate(677.781429, -6.200963)" fill="#FF3838" stroke="#000000">
            <path d="M155.488706,28.6817217 C133.741798,21.8810128 99.3165029,50.9020523 83.22154,65.5271138 C67.1265772,80.1521752 105.836095,102.817298 86.4734296,129.768133 C67.1107638,156.718968 29.0749747,141.959741 19.9240128,151.321013 C10.773051,160.682284 23.6706962,160.24968 25.8501706,191.784653 C27.3560025,213.572643 6.77832001,231.93096 12.5813206,237.899792 C26.3442246,237.178509 30.3824943,236.966872 34.4099719,236.755801 C39.2298918,236.503199 85.022588,234.103306 96.575582,233.497839 C108.176999,232.889835 117.556289,232.398287 122.025726,232.164054 C125.194248,228.37532 151.534316,233.622721 155.488706,208.445749 C159.443095,183.268778 133.69396,171.081822 135.339706,143.01922 C136.985452,114.956618 141.256671,107.706142 148.26287,95.4824872 C155.269068,83.2588327 179.125695,78.0670867 180.175323,63.9996988 C181.224951,49.932311 163.845418,31.2950386 155.488706,28.6817217 Z" id="Path_3"></path>
        </g>
    </g>
</svg>