<?xml version="1.0" encoding="UTF-8"?>
<svg width="607px" height="286px" viewBox="0 0 607 286" version="1.1" xmlns="http://www.w3.org/2000/svg" xmlns:xlink="http://www.w3.org/1999/xlink">
    <!-- Generator: Sketch 48.2 (47327) - http://www.bohemiancoding.com/sketch -->
    <title>Path 14</title>
    <desc>Created with Sketch.</desc>
    <defs></defs>
    <g id="Desktop" stroke="none" stroke-width="1" fill="none" fill-rule="evenodd" transform="translate(-417.000000, -1689.000000)">
        <path d="M417,1689.43729 C470.775626,1695.48273 497.663438,1714.41201 497.663438,1746.22515 C497.663438,1793.94485 455.748075,1832.21471 455.748075,1860.2686 C455.748075,1888.32249 470.427236,1909.48969 497.663438,1909.48969 C524.899641,1909.48969 533.322849,1900.10798 542.51456,1860.2686 C551.706271,1820.42921 537.230956,1764.91031 542.51456,1746.22515 C547.798164,1727.53998 555.971445,1724.95139 571.649946,1727.82906 C587.328446,1730.70672 590.822412,1744.3001 588.140022,1757.17364 C585.457631,1770.04718 573.521828,1805.08509 599.068316,1805.08509 C624.614804,1805.08509 616.096875,1787.75176 609.208804,1773.07118 C602.320733,1758.39059 607.668465,1749.09382 609.208804,1746.22515 C611.72875,1741.53209 637.832689,1733.97428 643.421167,1773.07118 C649.009645,1812.16808 624.298335,1837.11233 624.298335,1851.79126 C624.298335,1866.47018 632.910343,1886.40504 655.056468,1877.12228 C677.202593,1867.83952 677.202593,1843.78189 677.202593,1824.43349 C677.202593,1805.08509 660.370972,1779.41923 668.368383,1764.91031 C676.365794,1750.40138 687.851269,1734.75444 715.79166,1757.17364 C743.732052,1779.59284 737.005359,1822.43341 734.495413,1837.11233 C731.985467,1851.79126 729.287922,1873.01707 707.472493,1900.10798 C685.657063,1927.19889 713.224675,1974.99213 731.985467,1974.99213 C750.746259,1974.99213 777.90133,1965.85907 777.90133,1916.49601 C777.90133,1867.13295 742.292083,1851.79126 756.979239,1801.17338 C771.666396,1750.55551 778.40637,1757.17364 787.962931,1757.17364 C797.519493,1757.17364 807.985258,1768.80226 807.985258,1782.9558 C807.985258,1808.72466 800.247445,1820.86356 805.679339,1828.21318 C811.111233,1835.5628 828.631575,1830.11475 830.555587,1814.4344 C832.4796,1798.75405 820.461044,1792.08172 830.555587,1773.07118 C835.644031,1763.48837 838.621707,1757.09038 850.207279,1761.00034 C861.79285,1764.91031 868.851185,1766.17797 883.876269,1764.91031 C897.226121,1761.00034 888.722103,1755.3781 904.144545,1746.22515 C923.742041,1734.59437 960.317617,1742.32266 971.866548,1746.22515 C992.567144,1753.22006 993.327527,1795.74633 999.617584,1801.17338 C1003.81096,1804.79142 1011.95784,1806.09532 1024.05823,1805.08509 L1024.05823,1689.43729 L417,1689.43729 Z" id="Path-14" fill="#EEEEEE"></path>
    </g>
</svg>