<?xml version="1.0" encoding="UTF-8"?>
<svg width="1019px" height="913px" viewBox="0 0 1019 913" version="1.1" xmlns="http://www.w3.org/2000/svg" xmlns:xlink="http://www.w3.org/1999/xlink">
    <!-- Generator: Sketch 48.2 (47327) - http://www.bohemiancoding.com/sketch -->
    <title>Path 12</title>
    <desc>Created with Sketch.</desc>
    <defs></defs>
    <g id="Desktop" stroke="none" stroke-width="1" fill="none" fill-rule="evenodd" transform="translate(-5.000000, -1557.000000)">
        <path d="M290.512786,2468.68852 C397.089544,2433.01263 429.3765,2380.02347 387.373653,2309.72103 C324.369382,2204.26738 190.784335,2302.33401 89.1193842,2131.60551 C-12.5455664,1960.87701 -9.05750363,1833.169 37.2577989,1721.7627 C83.5731014,1610.35641 193.0997,1521.92637 321.483083,1572.68054 C449.866466,1623.4347 362.871546,1891.51314 490.218282,1900.83287 C617.565018,1910.15259 662.311789,1722.7614 710.344667,1703.85292 C758.377544,1684.94445 787.895509,1716.07263 809.322333,1775.21535 C843.910721,1870.68686 879.421552,1929.71478 934.732321,1954.54146 C971.606167,1971.09258 1001.36206,1975.88623 1024,1968.9224" id="Path-12" stroke="#979797"></path>
    </g>
</svg>