<?xml version="1.0" encoding="UTF-8"?>
<svg width="1024px" height="916px" viewBox="0 0 1024 916" version="1.1" xmlns="http://www.w3.org/2000/svg" xmlns:xlink="http://www.w3.org/1999/xlink">
    <!-- Generator: Sketch 48.2 (47327) - http://www.bohemiancoding.com/sketch -->
    <title>background</title>
    <desc>Created with Sketch.</desc>
    <defs>
        <rect id="path-1" x="0" y="0" width="1024" height="914"></rect>
    </defs>
    <g id="Desktop" stroke="none" stroke-width="1" fill="none" fill-rule="evenodd">
        <g id="background">
            <g>
                <use fill="#7E6C00" fill-rule="evenodd" xlink:href="#path-1"></use>
                <rect stroke="#979797" stroke-width="1" x="0.5" y="0.5" width="1023" height="913"></rect>
            </g>
            <g id="background-grid" transform="translate(1.000000, 1.000000)" stroke="#FFFFFF">
                <g id="background-lines" transform="translate(0.000000, 13.000000)">
                    <path d="M0.377128679,1.01095032 L1022.37289,1.01095032" id="Path-8"></path>
                    <path d="M0.377128679,16.0109503 L1022.37289,16.0109503" id="Path-8"></path>
                    <path d="M0.377128679,31.0109503 L1022.37289,31.0109503" id="Path-8"></path>
                    <path d="M0.377128679,45.0109503 L1022.37289,45.0109503" id="Path-8"></path>
                    <path d="M0.377128679,60.0109503 L1022.37289,60.0109503" id="Path-8"></path>
                    <path d="M0.377128679,75.0109503 L1022.37289,75.0109503" id="Path-8"></path>
                    <path d="M0.377128679,88.0109503 L1022.37289,88.0109503" id="Path-8"></path>
                    <path d="M0.377128679,103.01095 L1022.37289,103.01095" id="Path-8"></path>
                    <path d="M0.377128679,118.01095 L1022.37289,118.01095" id="Path-8"></path>
                    <path d="M0.377128679,132.01095 L1022.37289,132.01095" id="Path-8"></path>
                    <path d="M0.377128679,147.01095 L1022.37289,147.01095" id="Path-8"></path>
                    <path d="M0.377128679,162.01095 L1022.37289,162.01095" id="Path-8"></path>
                    <path d="M0.377128679,175.01095 L1022.37289,175.01095" id="Path-8"></path>
                    <path d="M0.377128679,190.01095 L1022.37289,190.01095" id="Path-8"></path>
                    <path d="M0.377128679,205.01095 L1022.37289,205.01095" id="Path-8"></path>
                    <path d="M0.377128679,219.01095 L1022.37289,219.01095" id="Path-8"></path>
                    <path d="M0.377128679,234.01095 L1022.37289,234.01095" id="Path-8"></path>
                    <path d="M0.377128679,249.01095 L1022.37289,249.01095" id="Path-8"></path>
                    <path d="M0.377128679,263.01095 L1022.37289,263.01095" id="Path-8"></path>
                    <path d="M0.377128679,278.01095 L1022.37289,278.01095" id="Path-8"></path>
                    <path d="M0.377128679,293.01095 L1022.37289,293.01095" id="Path-8"></path>
                    <path d="M0.377128679,307.01095 L1022.37289,307.01095" id="Path-8"></path>
                    <path d="M0.377128679,322.01095 L1022.37289,322.01095" id="Path-8"></path>
                    <path d="M0.377128679,337.01095 L1022.37289,337.01095" id="Path-8"></path>
                    <path d="M0.377128679,350.01095 L1022.37289,350.01095" id="Path-8"></path>
                    <path d="M0.377128679,365.01095 L1022.37289,365.01095" id="Path-8"></path>
                    <path d="M0.377128679,380.01095 L1022.37289,380.01095" id="Path-8"></path>
                    <path d="M0.377128679,394.01095 L1022.37289,394.01095" id="Path-8"></path>
                    <path d="M0.377128679,409.01095 L1022.37289,409.01095" id="Path-8"></path>
                    <path d="M0.377128679,424.01095 L1022.37289,424.01095" id="Path-8"></path>
                    <path d="M0.377128679,437.01095 L1022.37289,437.01095" id="Path-8"></path>
                    <path d="M0.377128679,452.01095 L1022.37289,452.01095" id="Path-8"></path>
                    <path d="M0.377128679,467.01095 L1022.37289,467.01095" id="Path-8"></path>
                    <path d="M0.377128679,481.01095 L1022.37289,481.01095" id="Path-8"></path>
                    <path d="M0.377128679,496.01095 L1022.37289,496.01095" id="Path-8"></path>
                    <path d="M0.377128679,511.01095 L1022.37289,511.01095" id="Path-8"></path>
                    <path d="M0.377128679,526.01095 L1022.37289,526.01095" id="Path-8"></path>
                    <path d="M0.377128679,541.01095 L1022.37289,541.01095" id="Path-8"></path>
                    <path d="M0.377128679,556.01095 L1022.37289,556.01095" id="Path-8"></path>
                    <path d="M0.377128679,570.01095 L1022.37289,570.01095" id="Path-8"></path>
                    <path d="M0.377128679,585.01095 L1022.37289,585.01095" id="Path-8"></path>
                    <path d="M0.377128679,600.01095 L1022.37289,600.01095" id="Path-8"></path>
                    <path d="M0.377128679,613.01095 L1022.37289,613.01095" id="Path-8"></path>
                    <path d="M0.377128679,628.01095 L1022.37289,628.01095" id="Path-8"></path>
                    <path d="M0.377128679,643.01095 L1022.37289,643.01095" id="Path-8"></path>
                    <path d="M0.377128679,657.01095 L1022.37289,657.01095" id="Path-8"></path>
                    <path d="M0.377128679,672.01095 L1022.37289,672.01095" id="Path-8"></path>
                    <path d="M0.377128679,687.01095 L1022.37289,687.01095" id="Path-8"></path>
                    <path d="M0.377128679,700.01095 L1022.37289,700.01095" id="Path-8"></path>
                    <path d="M0.377128679,715.01095 L1022.37289,715.01095" id="Path-8"></path>
                    <path d="M0.377128679,730.01095 L1022.37289,730.01095" id="Path-8"></path>
                    <path d="M0.377128679,744.01095 L1022.37289,744.01095" id="Path-8"></path>
                    <path d="M0.377128679,759.01095 L1022.37289,759.01095" id="Path-8"></path>
                    <path d="M0.377128679,774.01095 L1022.37289,774.01095" id="Path-8"></path>
                    <path d="M0.377128679,788.01095 L1022.37289,788.01095" id="Path-8"></path>
                    <path d="M0.377128679,803.01095 L1022.37289,803.01095" id="Path-8"></path>
                    <path d="M0.377128679,818.01095 L1022.37289,818.01095" id="Path-8"></path>
                    <path d="M0.377128679,832.01095 L1022.37289,832.01095" id="Path-8"></path>
                    <path d="M0.377128679,847.01095 L1022.37289,847.01095" id="Path-8"></path>
                    <path d="M0.377128679,862.01095 L1022.37289,862.01095" id="Path-8"></path>
                    <path d="M0.377128679,875.01095 L1022.37289,875.01095" id="Path-8"></path>
                    <path d="M0.377128679,890.01095 L1022.37289,890.01095" id="Path-8"></path>
                </g>
                <g id="background-lines" transform="translate(511.500000, 457.500000) rotate(-90.000000) translate(-511.500000, -457.500000) translate(54.000000, 12.000000)">
                    <path d="M0,1 L915,1" id="Path-8"></path>
                    <path d="M0,16 L915,16" id="Path-8"></path>
                    <path d="M0,31 L915,31" id="Path-8"></path>
                    <path d="M0,45 L915,45" id="Path-8"></path>
                    <path d="M0,60 L915,60" id="Path-8"></path>
                    <path d="M0,75 L915,75" id="Path-8"></path>
                    <path d="M0,88 L915,88" id="Path-8"></path>
                    <path d="M0,103 L915,103" id="Path-8"></path>
                    <path d="M0,118 L915,118" id="Path-8"></path>
                    <path d="M0,132 L915,132" id="Path-8"></path>
                    <path d="M0,147 L915,147" id="Path-8"></path>
                    <path d="M0,162 L915,162" id="Path-8"></path>
                    <path d="M0,175 L915,175" id="Path-8"></path>
                    <path d="M0,190 L915,190" id="Path-8"></path>
                    <path d="M0,205 L915,205" id="Path-8"></path>
                    <path d="M0,219 L915,219" id="Path-8"></path>
                    <path d="M0,234 L915,234" id="Path-8"></path>
                    <path d="M0,249 L915,249" id="Path-8"></path>
                    <path d="M0,263 L915,263" id="Path-8"></path>
                    <path d="M0,278 L915,278" id="Path-8"></path>
                    <path d="M0,293 L915,293" id="Path-8"></path>
                    <path d="M0,307 L915,307" id="Path-8"></path>
                    <path d="M0,322 L915,322" id="Path-8"></path>
                    <path d="M0,337 L915,337" id="Path-8"></path>
                    <path d="M0,350 L915,350" id="Path-8"></path>
                    <path d="M0,365 L915,365" id="Path-8"></path>
                    <path d="M0,380 L915,380" id="Path-8"></path>
                    <path d="M0,394 L915,394" id="Path-8"></path>
                    <path d="M0,409 L915,409" id="Path-8"></path>
                    <path d="M0,424 L915,424" id="Path-8"></path>
                    <path d="M0,437 L915,437" id="Path-8"></path>
                    <path d="M0,452 L915,452" id="Path-8"></path>
                    <path d="M0,467 L915,467" id="Path-8"></path>
                    <path d="M0,481 L915,481" id="Path-8"></path>
                    <path d="M0,496 L915,496" id="Path-8"></path>
                    <path d="M0,511 L915,511" id="Path-8"></path>
                    <path d="M0,526 L915,526" id="Path-8"></path>
                    <path d="M0,541 L915,541" id="Path-8"></path>
                    <path d="M0,556 L915,556" id="Path-8"></path>
                    <path d="M0,570 L915,570" id="Path-8"></path>
                    <path d="M0,585 L915,585" id="Path-8"></path>
                    <path d="M0,600 L915,600" id="Path-8"></path>
                    <path d="M0,613 L915,613" id="Path-8"></path>
                    <path d="M0,628 L915,628" id="Path-8"></path>
                    <path d="M0,643 L915,643" id="Path-8"></path>
                    <path d="M0,657 L915,657" id="Path-8"></path>
                    <path d="M0,672 L915,672" id="Path-8"></path>
                    <path d="M0,687 L915,687" id="Path-8"></path>
                    <path d="M0,700 L915,700" id="Path-8"></path>
                    <path d="M0,715 L915,715" id="Path-8"></path>
                    <path d="M0,730 L915,730" id="Path-8"></path>
                    <path d="M0,744 L915,744" id="Path-8"></path>
                    <path d="M0,759 L915,759" id="Path-8"></path>
                    <path d="M0,774 L915,774" id="Path-8"></path>
                    <path d="M0,788 L915,788" id="Path-8"></path>
                    <path d="M0,803 L915,803" id="Path-8"></path>
                    <path d="M0,818 L915,818" id="Path-8"></path>
                    <path d="M0,832 L915,832" id="Path-8"></path>
                    <path d="M0,847 L915,847" id="Path-8"></path>
                    <path d="M0,862 L915,862" id="Path-8"></path>
                    <path d="M0,875 L915,875" id="Path-8"></path>
                    <path d="M0,890 L915,890" id="Path-8"></path>
                </g>
            </g>
        </g>
    </g>
</svg>