<?xml version="1.0" encoding="UTF-8"?>
<svg width="1024px" height="914px" viewBox="0 0 1024 914" version="1.1" xmlns="http://www.w3.org/2000/svg" xmlns:xlink="http://www.w3.org/1999/xlink">
    <!-- Generator: Sketch 48.2 (47327) - http://www.bohemiancoding.com/sketch -->
    <title>hoizontal_rid</title>
    <desc>Created with Sketch.</desc>
    <defs>
        <rect id="path-1" x="0" y="0" width="1024" height="914"></rect>
    </defs>
    <g id="Desktop" stroke="none" stroke-width="1" fill="none" fill-rule="evenodd">
        <g id="background">
            <g id="background-grid">
                <g id="hoizontal_rid">
                    <g id="background">
                        <use fill="#7E6C00" fill-rule="evenodd" xlink:href="#path-1"></use>
                        <rect stroke="#979797" stroke-width="1" x="0.5" y="0.5" width="1023" height="913"></rect>
                    </g>
                    <path d="M1.37712868,15.0109503 L1023.37289,15.0109503" id="Path-8" stroke="#FFFFFF"></path>
                    <path d="M1.37712868,30.0109503 L1023.37289,30.0109503" id="Path-8" stroke="#FFFFFF"></path>
                    <path d="M1.37712868,45.0109503 L1023.37289,45.0109503" id="Path-8" stroke="#FFFFFF"></path>
                    <path d="M1.37712868,59.0109503 L1023.37289,59.0109503" id="Path-8" stroke="#FFFFFF"></path>
                    <path d="M1.37712868,74.0109503 L1023.37289,74.0109503" id="Path-8" stroke="#FFFFFF"></path>
                    <path d="M1.37712868,89.0109503 L1023.37289,89.0109503" id="Path-8" stroke="#FFFFFF"></path>
                    <path d="M1.37712868,102.01095 L1023.37289,102.01095" id="Path-8" stroke="#FFFFFF"></path>
                    <path d="M1.37712868,117.01095 L1023.37289,117.01095" id="Path-8" stroke="#FFFFFF"></path>
                    <path d="M1.37712868,132.01095 L1023.37289,132.01095" id="Path-8" stroke="#FFFFFF"></path>
                    <path d="M1.37712868,146.01095 L1023.37289,146.01095" id="Path-8" stroke="#FFFFFF"></path>
                    <path d="M1.37712868,161.01095 L1023.37289,161.01095" id="Path-8" stroke="#FFFFFF"></path>
                    <path d="M1.37712868,176.01095 L1023.37289,176.01095" id="Path-8" stroke="#FFFFFF"></path>
                    <path d="M1.37712868,189.01095 L1023.37289,189.01095" id="Path-8" stroke="#FFFFFF"></path>
                    <path d="M1.37712868,204.01095 L1023.37289,204.01095" id="Path-8" stroke="#FFFFFF"></path>
                    <path d="M1.37712868,219.01095 L1023.37289,219.01095" id="Path-8" stroke="#FFFFFF"></path>
                    <path d="M1.37712868,233.01095 L1023.37289,233.01095" id="Path-8" stroke="#FFFFFF"></path>
                    <path d="M1.37712868,248.01095 L1023.37289,248.01095" id="Path-8" stroke="#FFFFFF"></path>
                    <path d="M1.37712868,263.01095 L1023.37289,263.01095" id="Path-8" stroke="#FFFFFF"></path>
                    <path d="M1.37712868,277.01095 L1023.37289,277.01095" id="Path-8" stroke="#FFFFFF"></path>
                    <path d="M1.37712868,292.01095 L1023.37289,292.01095" id="Path-8" stroke="#FFFFFF"></path>
                    <path d="M1.37712868,307.01095 L1023.37289,307.01095" id="Path-8" stroke="#FFFFFF"></path>
                    <path d="M1.37712868,321.01095 L1023.37289,321.01095" id="Path-8" stroke="#FFFFFF"></path>
                    <path d="M1.37712868,336.01095 L1023.37289,336.01095" id="Path-8" stroke="#FFFFFF"></path>
                    <path d="M1.37712868,351.01095 L1023.37289,351.01095" id="Path-8" stroke="#FFFFFF"></path>
                    <path d="M1.37712868,364.01095 L1023.37289,364.01095" id="Path-8" stroke="#FFFFFF"></path>
                    <path d="M1.37712868,379.01095 L1023.37289,379.01095" id="Path-8" stroke="#FFFFFF"></path>
                    <path d="M1.37712868,394.01095 L1023.37289,394.01095" id="Path-8" stroke="#FFFFFF"></path>
                    <path d="M1.37712868,408.01095 L1023.37289,408.01095" id="Path-8" stroke="#FFFFFF"></path>
                    <path d="M1.37712868,423.01095 L1023.37289,423.01095" id="Path-8" stroke="#FFFFFF"></path>
                    <path d="M1.37712868,438.01095 L1023.37289,438.01095" id="Path-8" stroke="#FFFFFF"></path>
                    <path d="M1.37712868,451.01095 L1023.37289,451.01095" id="Path-8" stroke="#FFFFFF"></path>
                    <path d="M1.37712868,466.01095 L1023.37289,466.01095" id="Path-8" stroke="#FFFFFF"></path>
                    <path d="M1.37712868,481.01095 L1023.37289,481.01095" id="Path-8" stroke="#FFFFFF"></path>
                    <path d="M1.37712868,495.01095 L1023.37289,495.01095" id="Path-8" stroke="#FFFFFF"></path>
                    <path d="M1.37712868,510.01095 L1023.37289,510.01095" id="Path-8" stroke="#FFFFFF"></path>
                    <path d="M1.37712868,525.01095 L1023.37289,525.01095" id="Path-8" stroke="#FFFFFF"></path>
                    <path d="M1.37712868,540.01095 L1023.37289,540.01095" id="Path-8" stroke="#FFFFFF"></path>
                    <path d="M1.37712868,555.01095 L1023.37289,555.01095" id="Path-8" stroke="#FFFFFF"></path>
                    <path d="M1.37712868,570.01095 L1023.37289,570.01095" id="Path-8" stroke="#FFFFFF"></path>
                    <path d="M1.37712868,584.01095 L1023.37289,584.01095" id="Path-8" stroke="#FFFFFF"></path>
                    <path d="M1.37712868,599.01095 L1023.37289,599.01095" id="Path-8" stroke="#FFFFFF"></path>
                    <path d="M1.37712868,614.01095 L1023.37289,614.01095" id="Path-8" stroke="#FFFFFF"></path>
                    <path d="M1.37712868,627.01095 L1023.37289,627.01095" id="Path-8" stroke="#FFFFFF"></path>
                    <path d="M1.37712868,642.01095 L1023.37289,642.01095" id="Path-8" stroke="#FFFFFF"></path>
                    <path d="M1.37712868,657.01095 L1023.37289,657.01095" id="Path-8" stroke="#FFFFFF"></path>
                    <path d="M1.37712868,671.01095 L1023.37289,671.01095" id="Path-8" stroke="#FFFFFF"></path>
                    <path d="M1.37712868,686.01095 L1023.37289,686.01095" id="Path-8" stroke="#FFFFFF"></path>
                    <path d="M1.37712868,701.01095 L1023.37289,701.01095" id="Path-8" stroke="#FFFFFF"></path>
                    <path d="M1.37712868,714.01095 L1023.37289,714.01095" id="Path-8" stroke="#FFFFFF"></path>
                    <path d="M1.37712868,729.01095 L1023.37289,729.01095" id="Path-8" stroke="#FFFFFF"></path>
                    <path d="M1.37712868,744.01095 L1023.37289,744.01095" id="Path-8" stroke="#FFFFFF"></path>
                    <path d="M1.37712868,758.01095 L1023.37289,758.01095" id="Path-8" stroke="#FFFFFF"></path>
                    <path d="M1.37712868,773.01095 L1023.37289,773.01095" id="Path-8" stroke="#FFFFFF"></path>
                    <path d="M1.37712868,788.01095 L1023.37289,788.01095" id="Path-8" stroke="#FFFFFF"></path>
                    <path d="M1.37712868,802.01095 L1023.37289,802.01095" id="Path-8" stroke="#FFFFFF"></path>
                    <path d="M1.37712868,817.01095 L1023.37289,817.01095" id="Path-8" stroke="#FFFFFF"></path>
                    <path d="M1.37712868,832.01095 L1023.37289,832.01095" id="Path-8" stroke="#FFFFFF"></path>
                    <path d="M1.37712868,846.01095 L1023.37289,846.01095" id="Path-8" stroke="#FFFFFF"></path>
                    <path d="M1.37712868,861.01095 L1023.37289,861.01095" id="Path-8" stroke="#FFFFFF"></path>
                    <path d="M1.37712868,876.01095 L1023.37289,876.01095" id="Path-8" stroke="#FFFFFF"></path>
                    <path d="M1.37712868,889.01095 L1023.37289,889.01095" id="Path-8" stroke="#FFFFFF"></path>
                    <path d="M1.37712868,904.01095 L1023.37289,904.01095" id="Path-8" stroke="#FFFFFF"></path>
                </g>
            </g>
        </g>
    </g>
</svg>