<?xml version="1.0" encoding="UTF-8"?>
<svg width="891px" height="915px" viewBox="0 0 891 915" version="1.1" xmlns="http://www.w3.org/2000/svg" xmlns:xlink="http://www.w3.org/1999/xlink">
    <!-- Generator: Sketch 48.2 (47327) - http://www.bohemiancoding.com/sketch -->
    <title>vertical_grid</title>
    <desc>Created with Sketch.</desc>
    <defs></defs>
    <g id="Desktop" stroke="none" stroke-width="1" fill="none" fill-rule="evenodd" transform="translate(-67.000000, -1.000000)">
        <g id="background" stroke="#FFFFFF">
            <g id="background-grid">
                <g id="vertical_grid" transform="translate(512.500000, 458.500000) rotate(-90.000000) translate(-512.500000, -458.500000) translate(55.000000, 13.000000)">
                    <path d="M0,1 L915,1" id="Path-8"></path>
                    <path d="M0,16 L915,16" id="Path-8"></path>
                    <path d="M0,31 L915,31" id="Path-8"></path>
                    <path d="M0,45 L915,45" id="Path-8"></path>
                    <path d="M0,60 L915,60" id="Path-8"></path>
                    <path d="M0,75 L915,75" id="Path-8"></path>
                    <path d="M0,88 L915,88" id="Path-8"></path>
                    <path d="M0,103 L915,103" id="Path-8"></path>
                    <path d="M0,118 L915,118" id="Path-8"></path>
                    <path d="M0,132 L915,132" id="Path-8"></path>
                    <path d="M0,147 L915,147" id="Path-8"></path>
                    <path d="M0,162 L915,162" id="Path-8"></path>
                    <path d="M0,175 L915,175" id="Path-8"></path>
                    <path d="M0,190 L915,190" id="Path-8"></path>
                    <path d="M0,205 L915,205" id="Path-8"></path>
                    <path d="M0,219 L915,219" id="Path-8"></path>
                    <path d="M0,234 L915,234" id="Path-8"></path>
                    <path d="M0,249 L915,249" id="Path-8"></path>
                    <path d="M0,263 L915,263" id="Path-8"></path>
                    <path d="M0,278 L915,278" id="Path-8"></path>
                    <path d="M0,293 L915,293" id="Path-8"></path>
                    <path d="M0,307 L915,307" id="Path-8"></path>
                    <path d="M0,322 L915,322" id="Path-8"></path>
                    <path d="M0,337 L915,337" id="Path-8"></path>
                    <path d="M0,350 L915,350" id="Path-8"></path>
                    <path d="M0,365 L915,365" id="Path-8"></path>
                    <path d="M0,380 L915,380" id="Path-8"></path>
                    <path d="M0,394 L915,394" id="Path-8"></path>
                    <path d="M0,409 L915,409" id="Path-8"></path>
                    <path d="M0,424 L915,424" id="Path-8"></path>
                    <path d="M0,437 L915,437" id="Path-8"></path>
                    <path d="M0,452 L915,452" id="Path-8"></path>
                    <path d="M0,467 L915,467" id="Path-8"></path>
                    <path d="M0,481 L915,481" id="Path-8"></path>
                    <path d="M0,496 L915,496" id="Path-8"></path>
                    <path d="M0,511 L915,511" id="Path-8"></path>
                    <path d="M0,526 L915,526" id="Path-8"></path>
                    <path d="M0,541 L915,541" id="Path-8"></path>
                    <path d="M0,556 L915,556" id="Path-8"></path>
                    <path d="M0,570 L915,570" id="Path-8"></path>
                    <path d="M0,585 L915,585" id="Path-8"></path>
                    <path d="M0,600 L915,600" id="Path-8"></path>
                    <path d="M0,613 L915,613" id="Path-8"></path>
                    <path d="M0,628 L915,628" id="Path-8"></path>
                    <path d="M0,643 L915,643" id="Path-8"></path>
                    <path d="M0,657 L915,657" id="Path-8"></path>
                    <path d="M0,672 L915,672" id="Path-8"></path>
                    <path d="M0,687 L915,687" id="Path-8"></path>
                    <path d="M0,700 L915,700" id="Path-8"></path>
                    <path d="M0,715 L915,715" id="Path-8"></path>
                    <path d="M0,730 L915,730" id="Path-8"></path>
                    <path d="M0,744 L915,744" id="Path-8"></path>
                    <path d="M0,759 L915,759" id="Path-8"></path>
                    <path d="M0,774 L915,774" id="Path-8"></path>
                    <path d="M0,788 L915,788" id="Path-8"></path>
                    <path d="M0,803 L915,803" id="Path-8"></path>
                    <path d="M0,818 L915,818" id="Path-8"></path>
                    <path d="M0,832 L915,832" id="Path-8"></path>
                    <path d="M0,847 L915,847" id="Path-8"></path>
                    <path d="M0,862 L915,862" id="Path-8"></path>
                    <path d="M0,875 L915,875" id="Path-8"></path>
                    <path d="M0,890 L915,890" id="Path-8"></path>
                </g>
            </g>
        </g>
    </g>
</svg>