<?xml version="1.0" encoding="UTF-8"?>
<svg width="351px" height="273px" viewBox="0 0 351 273" version="1.1" xmlns="http://www.w3.org/2000/svg" xmlns:xlink="http://www.w3.org/1999/xlink">
    <!-- Generator: Sketch 48.2 (47327) - http://www.bohemiancoding.com/sketch -->
    <title>Path_1</title>
    <desc>Created with Sketch.</desc>
    <defs></defs>
    <g id="Desktop" stroke="none" stroke-width="1" fill="none" fill-rule="evenodd" transform="translate(-348.000000, -310.000000)">
        <g id="middle-blob" transform="translate(281.000000, 263.000000)" fill="#FBF7EB" stroke="#000000">
            <path d="M211.773671,48 C278.783786,48 325.94776,69.1485704 357.010488,83.8710852 C382.296552,95.8556881 370.964036,103.218695 370.964036,118.351402 C370.964036,128.439873 375.892299,132.412718 385.748824,130.269938 C393.970516,125.57743 399.916525,118.984526 403.586852,110.491227 C409.092343,97.7512783 418.477566,122.04198 416.802747,135.239997 C415.127929,148.438014 408.671597,149.024741 397.213072,160.718316 C385.754547,172.411891 423.280107,230.263637 394.860036,257.146982 C366.439964,284.030328 381.834292,256.072313 370.964036,263.484022 C360.09378,270.895731 369.351158,286.89299 351.233562,286.89299 C333.115967,286.89299 319.287544,287.814903 309.226427,269.193827 C295.783313,244.313364 269.77716,323.634733 211.773671,318.785756 C153.770182,313.936779 145.705252,333.845894 96.9605644,286.89299 C48.2158767,239.940086 76.2826146,247.692776 73.9397012,206.43348 C71.5967879,165.174185 68.9326432,134.968707 87.6725197,111.491285 C106.412396,88.0138637 138.806139,101.030683 166.9544,86.629775 C195.102661,72.228867 144.763556,48 211.773671,48 Z" id="Path_1"></path>
        </g>
    </g>
</svg>