<?xml version="1.0" encoding="UTF-8"?>
<svg width="365px" height="288px" viewBox="0 0 365 288" version="1.1" xmlns="http://www.w3.org/2000/svg" xmlns:xlink="http://www.w3.org/1999/xlink">
    <!-- Generator: Sketch 48.2 (47327) - http://www.bohemiancoding.com/sketch -->
    <title>Path_2</title>
    <desc>Created with Sketch.</desc>
    <defs></defs>
    <g id="Desktop" stroke="none" stroke-width="1" fill="none" fill-rule="evenodd" transform="translate(-336.000000, -302.000000)">
        <g id="middle-blob" transform="translate(281.000000, 263.000000)" fill="#D7E4CD" stroke="#000000">
            <path d="M207.212061,40 C277.689064,40 327.293152,62.3191555 359.962966,77.8565696 C386.557251,90.5045269 373.726509,96.4046933 373.726509,117.664253 C373.726509,129.042189 387.456088,129.588612 400.876472,109.64342 C414.296856,89.698228 419,129.693874 419,134.356356 C419,149.995242 414.296856,146.616516 402.245503,158.957337 C390.19415,171.298158 429.661164,232.35203 399.770729,260.723383 C369.880294,289.094737 380.227823,266.56959 372.00389,271.367966 C363.779957,276.166343 372.942103,292.115849 353.887161,292.115849 C334.832219,292.115849 318.97109,293.08879 308.389443,273.437028 C294.250825,247.179417 268.216465,330.891268 207.212061,325.773898 C146.207656,320.656527 137.725473,341.667622 86.4588913,292.115849 C35.1923094,242.564076 64.7111306,250.745881 62.2470024,207.202861 C59.7828742,163.659841 56.9808952,131.782473 76.690313,107.005563 C96.3997308,82.2286532 130.469422,95.9659607 160.073984,80.7679545 C189.678546,65.5699482 136.735057,40 207.212061,40 Z" id="Path_2"></path>
        </g>
    </g>
</svg>