<?xml version="1.0" encoding="UTF-8"?>
<svg width="556px" height="415px" viewBox="0 0 556 415" version="1.1" xmlns="http://www.w3.org/2000/svg" xmlns:xlink="http://www.w3.org/1999/xlink">
    <!-- Generator: Sketch 48.2 (47327) - http://www.bohemiancoding.com/sketch -->
    <title>Path_8bigger</title>
    <desc>Created with Sketch.</desc>
    <defs></defs>
    <g id="Desktop" stroke="none" stroke-width="1" fill="none" fill-rule="evenodd" transform="translate(-315.000000, -171.000000)">
        <g id="middle-blob-bigger" transform="translate(303.000000, 167.000000)" fill="#000000" stroke="#000000">
            <path d="M246.80468,5 C366.813943,5 436.427808,32.8938555 482.988727,59.6636877 C518.076332,79.8370285 494.069558,100.933322 496.823804,113.483047 C499.57805,126.032772 519.501045,103.628421 527.523576,101.753912 C550.198353,96.455822 567,125.929268 567,144.294647 C567,166.876704 567,158.950873 548.366151,176.770628 C529.732303,194.590383 590.756353,282.75024 544.539646,323.717576 C498.322938,364.684912 504.33469,343.402292 495.845199,348.201888 C487.355709,353.001485 503.057119,370.910689 473.594294,370.910689 C444.131468,370.910689 413.845675,379.363008 397.484291,350.986486 C375.623105,313.071328 341.129928,425.03778 246.80468,417.648459 C152.479431,410.259138 139.364247,440.598493 60.095657,369.047302 C-19.1729326,297.496111 26.4691842,309.310379 22.6591395,246.435637 C18.8490948,183.560895 14.516664,137.530985 44.9914429,101.753912 C75.4662218,65.976838 132.567729,83.9046237 172.14396,65.5279604 C211.720191,47.1512972 126.795416,5 246.80468,5 Z" id="Path_8bigger"></path>
        </g>
    </g>
</svg>