<?xml version="1.0" encoding="UTF-8"?>
<svg width="405px" height="323px" viewBox="0 0 405 323" version="1.1" xmlns="http://www.w3.org/2000/svg" xmlns:xlink="http://www.w3.org/1999/xlink">
    <!-- Generator: Sketch 48.2 (47327) - http://www.bohemiancoding.com/sketch -->
    <title>Path_5</title>
    <desc>Created with Sketch.</desc>
    <defs></defs>
    <g id="Desktop" stroke="none" stroke-width="1" fill="none" fill-rule="evenodd" transform="translate(-310.000000, -282.000000)">
        <g id="middle-blob" transform="translate(281.000000, 263.000000)" fill="#4C735C" stroke="#000000">
            <path d="M200.078133,20 C287.377291,20 336.510499,43.3371614 371.887106,62.4877945 C396.170532,75.6332879 385.735517,87.362971 382.531044,100.925587 C379.326572,114.488204 393.757496,109.218488 401.556135,99.6088441 C403.898782,96.7221868 409.092052,94.7850846 413.224077,96.297369 C422.847507,99.8194594 433,115.988309 433,128.267894 C433,145.81998 433,139.659564 419.445052,153.510113 C405.890105,167.360662 450.281246,235.883626 416.661511,267.72582 C383.041776,299.568014 391.781042,280.080558 382.531044,285.465949 C373.281047,290.85134 386.485594,304.40705 365.05325,304.40705 C343.620905,304.40705 322.881571,308.395681 310.979698,286.339799 C295.077066,256.869935 268.693792,346.47777 200.078133,340.73436 C131.462474,334.990951 121.922006,358.572461 64.2591151,302.958717 C6.59622413,247.344974 39.7979806,256.527709 37.0264138,207.657806 C34.254847,158.787903 31.1032772,123.010783 53.2717536,95.2027622 C75.4402299,67.3947417 118.269636,80.0387573 147.058843,65.7553468 C175.848051,51.4719363 112.778976,20 200.078133,20 Z" id="Path_5"></path>
        </g>
    </g>
</svg>