<?xml version="1.0" encoding="UTF-8"?>
<svg width="503px" height="375px" viewBox="0 0 503 375" version="1.1" xmlns="http://www.w3.org/2000/svg" xmlns:xlink="http://www.w3.org/1999/xlink">
    <!-- Generator: Sketch 48.2 (47327) - http://www.bohemiancoding.com/sketch -->
    <title>Path_4bigger</title>
    <desc>Created with Sketch.</desc>
    <defs></defs>
    <g id="Desktop" stroke="none" stroke-width="1" fill="none" fill-rule="evenodd" transform="translate(-347.000000, -193.000000)">
        <g id="middle-blob-bigger" transform="translate(303.000000, 167.000000)" fill="#FF3838" stroke="#000000">
            <path d="M256.437084,27 C364.965317,27 426.154281,54.0000748 470.025907,76.3705525 C499.440373,91.3692142 487.60385,106.063895 482.502931,126.032223 C477.402012,146.000552 501.719719,134.994179 512.233349,120.922981 C522.74698,106.851783 546,133.543481 546,152.806618 C546,173.202033 546,166.043668 529.148812,182.13792 C512.297624,198.232172 567.483634,277.855428 525.68838,314.85586 C483.893126,351.856291 494.757573,329.211988 483.258197,335.469779 C471.75882,341.727569 488.174398,357.47922 461.530219,357.47922 C434.886039,357.47922 409.103392,362.113985 394.307267,336.485187 C374.537494,302.241388 341.738437,406.365135 256.437084,399.691329 C171.135731,393.017522 159.275248,420.41909 87.5901158,355.796266 C15.9049834,291.173443 57.1806161,301.843725 53.7350702,245.057202 C50.2895244,188.270679 46.371568,146.697888 73.9308897,114.385141 C101.490211,82.0723946 154.734708,96.7646619 190.524765,80.1674279 C226.314823,63.5701939 147.908851,27 256.437084,27 Z" id="Path_4bigger"></path>
        </g>
    </g>
</svg>