<?xml version="1.0" encoding="UTF-8"?>
<svg width="539px" height="402px" viewBox="0 0 539 402" version="1.1" xmlns="http://www.w3.org/2000/svg" xmlns:xlink="http://www.w3.org/1999/xlink">
    <!-- Generator: Sketch 48.2 (47327) - http://www.bohemiancoding.com/sketch -->
    <title>Path_7bigger</title>
    <desc>Created with Sketch.</desc>
    <defs></defs>
    <g id="Desktop" stroke="none" stroke-width="1" fill="none" fill-rule="evenodd" transform="translate(-325.000000, -179.000000)">
        <g id="middle-blob-bigger" transform="translate(303.000000, 167.000000)" fill="#750000" stroke="#000000">
            <path d="M249.630168,13 C365.956836,13 433.434536,40.0158406 478.56669,65.9430389 C512.5776,85.4813835 489.307496,105.913629 491.977225,118.068326 C494.646954,130.223023 513.958594,108.523895 521.734946,106.708389 C543.713927,101.577067 560,130.122778 560,147.91007 C560,169.781311 560,162.104962 541.937948,179.363805 C523.875896,196.622647 583.027368,282.007496 538.228862,321.685304 C493.430357,361.363111 499.257632,340.750403 491.02865,345.398923 C482.799667,350.047443 498.019265,367.392919 469.460534,367.392919 C440.901802,367.392919 411.545356,375.579185 395.686037,348.09587 C374.495681,311.374167 341.060959,419.816252 249.630168,412.659525 C158.199376,405.502797 145.486643,434.887161 68.6504834,365.588186 C-8.18567653,296.289212 36.0558699,307.731602 32.3627399,246.835968 C28.66961,185.940334 24.4701238,141.359308 54.009756,106.708389 C83.5493882,72.0574702 138.898683,89.4209431 177.260481,71.622722 C215.622279,53.8245009 133.303499,13 249.630168,13 Z" id="Path_7bigger"></path>
        </g>
    </g>
</svg>