<?xml version="1.0" encoding="UTF-8"?>
<svg width="372px" height="294px" viewBox="0 0 372 294" version="1.1" xmlns="http://www.w3.org/2000/svg" xmlns:xlink="http://www.w3.org/1999/xlink">
    <!-- Generator: Sketch 48.2 (47327) - http://www.bohemiancoding.com/sketch -->
    <title>Path_3</title>
    <desc>Created with Sketch.</desc>
    <defs></defs>
    <g id="Desktop" stroke="none" stroke-width="1" fill="none" fill-rule="evenodd" transform="translate(-334.000000, -298.000000)">
        <g id="middle-blob" transform="translate(281.000000, 263.000000)" fill="#605242" stroke="#000000">
            <path d="M208.678587,36 C288.073334,36 331.51253,58.7865464 364.931298,74.6493333 C392.135255,87.5621546 370.938682,108.100992 377.876453,118.06418 C384.814224,128.027369 398.611917,110.221471 405.651651,102.216305 C412.691385,94.2111399 424,115.898155 424,131.864539 C424,147.830923 420.510788,144.849199 408.183159,157.448452 C395.85553,170.047705 436.227322,232.380121 405.651651,261.345606 C375.075979,290.311091 383.023957,272.584184 374.611491,277.483044 C366.199025,282.381904 378.20798,294.712955 358.716205,294.712955 C339.22443,294.712955 320.362917,298.341243 309.538686,278.277948 C295.075942,251.47047 271.081514,332.982894 208.678587,327.758359 C146.275661,322.533824 137.599025,343.984917 85.1571595,293.395469 C32.7152944,242.80602 62.9108327,251.159162 60.3902145,206.704297 C57.8695963,162.249432 55.0033822,129.704513 75.1646371,104.408743 C95.325892,79.1129738 134.277354,90.6146951 160.459873,77.6216862 C186.642392,64.6286772 129.283841,36 208.678587,36 Z" id="Path_3"></path>
        </g>
    </g>
</svg>