<?xml version="1.0" encoding="UTF-8"?>
<svg width="525px" height="391px" viewBox="0 0 525 391" version="1.1" xmlns="http://www.w3.org/2000/svg" xmlns:xlink="http://www.w3.org/1999/xlink">
    <!-- Generator: Sketch 48.2 (47327) - http://www.bohemiancoding.com/sketch -->
    <title>Path_6bigger</title>
    <desc>Created with Sketch.</desc>
    <defs></defs>
    <g id="Desktop" stroke="none" stroke-width="1" fill="none" fill-rule="evenodd" transform="translate(-335.000000, -185.000000)">
        <g id="middle-blob-bigger" transform="translate(303.000000, 167.000000)" fill="#BCA894" stroke="#000000">
            <path d="M253.721746,19 C367.01569,19 432.734194,45.272905 476.689719,70.4871054 C509.813938,89.4881455 487.150503,109.358504 489.750631,121.178947 C492.350758,132.99939 511.158929,111.896988 518.732546,110.131408 C540.138517,105.141198 556,132.901901 556,150.200043 C556,171.469825 556,164.004576 538.40884,180.7888 C520.817679,197.573024 578.427027,280.60979 534.796452,319.196458 C491.165878,357.783126 496.841232,337.737267 488.826785,342.257953 C480.812339,346.778638 495.63515,363.647114 467.820967,363.647114 C440.006783,363.647114 411.415682,371.608257 395.969827,344.880734 C375.33192,309.168878 342.768867,414.628805 253.721746,407.668888 C164.674625,400.70897 152.293323,429.285264 77.4603404,361.892011 C2.62735787,294.498758 45.7154934,305.626483 42.1186462,246.405479 C38.5217989,187.184475 34.4317965,143.829427 63.201308,110.131408 C91.9708195,76.4333898 145.877116,93.3193671 183.238792,76.0105971 C220.600469,58.7018271 140.427803,19 253.721746,19 Z" id="Path_6bigger"></path>
        </g>
    </g>
</svg>