<?xml version="1.0" encoding="UTF-8"?>
<svg width="446px" height="324px" viewBox="0 0 446 324" version="1.1" xmlns="http://www.w3.org/2000/svg" xmlns:xlink="http://www.w3.org/1999/xlink">
    <!-- Generator: Sketch 48.2 (47327) - http://www.bohemiancoding.com/sketch -->
    <title>Path_1bigger</title>
    <desc>Created with Sketch.</desc>
    <defs></defs>
    <g id="Desktop" stroke="none" stroke-width="1" fill="none" fill-rule="evenodd" transform="translate(-388.000000, -223.000000)">
        <g id="middle-blob-bigger" transform="translate(303.000000, 167.000000)" fill="#FBF7EB" stroke="#000000">
            <path d="M268.90977,57 C354.160461,57 414.162766,82.1285597 453.680964,99.6217322 C485.850055,113.86174 471.432756,122.610405 471.432756,140.590965 C471.432756,152.578004 477.702523,157.298507 490.242057,154.752473 C500.701745,149.176872 508.266295,141.343238 512.935709,131.251569 C519.939829,116.114065 531.879768,144.97608 529.749054,160.657856 C527.618339,176.339632 519.404553,177.036777 504.826945,190.930988 C490.249337,204.825199 537.989592,273.564173 501.833398,305.506746 C465.677204,337.449319 485.261965,304.229833 471.432756,313.036365 C457.603548,321.842898 469.380843,340.850711 446.331523,340.850711 C423.282204,340.850711 405.689597,341.94612 392.889781,319.82071 C375.787366,290.257945 342.702175,384.506953 268.90977,378.745437 C195.117366,372.983922 184.857112,396.63977 122.843813,340.850711 C60.8305136,285.061652 96.5371945,294.273335 93.5565254,245.249375 C90.5758562,196.225416 87.1865146,160.335512 111.027504,132.43983 C134.868493,104.544148 176.080016,120.010627 211.890411,102.899585 C247.700806,85.788543 183.65908,57 268.90977,57 Z" id="Path_1bigger"></path>
        </g>
    </g>
</svg>