<?xml version="1.0" encoding="UTF-8"?>
<svg width="424px" height="339px" viewBox="0 0 424 339" version="1.1" xmlns="http://www.w3.org/2000/svg" xmlns:xlink="http://www.w3.org/1999/xlink">
    <!-- Generator: Sketch 48.2 (47327) - http://www.bohemiancoding.com/sketch -->
    <title>Path_7</title>
    <desc>Created with Sketch.</desc>
    <defs></defs>
    <g id="Desktop" stroke="none" stroke-width="1" fill="none" fill-rule="evenodd" transform="translate(-298.000000, -273.000000)">
        <g id="middle-blob" transform="translate(281.000000, 263.000000)" fill="#750000" stroke="#000000">
            <path d="M196.096705,11 C287.511704,11 340.538871,33.7608457 376.005853,55.6045103 C402.733235,72.0655656 384.446487,89.2797325 386.544486,99.5200649 C388.642486,109.760397 403.818485,91.4788813 409.929511,89.9493177 C427.201633,85.6261792 440,109.67594 440,124.661734 C440,143.088255 440,136.620931 425.805985,151.161505 C411.611971,165.70208 458.095995,237.638816 422.89121,271.067368 C387.686426,304.495921 392.265774,287.129715 385.799051,291.046093 C379.332327,294.962471 391.292607,309.576034 368.849805,309.576034 C346.407003,309.576034 323.337319,316.472963 310.874316,293.318271 C294.221932,262.380236 267.947346,353.742692 196.096705,347.713149 C124.246065,341.683607 114.255798,366.439933 53.8743091,308.055547 C-6.50717969,249.671161 28.2599201,259.311375 25.3576839,208.006803 C22.4554477,156.702231 19.1552928,119.142717 42.368933,89.9493177 C65.5825733,60.7559187 109.078667,75.3846445 139.225182,60.3896433 C169.371698,45.394642 104.681707,11 196.096705,11 Z" id="Path_7"></path>
        </g>
    </g>
</svg>