<?xml version="1.0" encoding="UTF-8"?>
<svg width="413px" height="330px" viewBox="0 0 413 330" version="1.1" xmlns="http://www.w3.org/2000/svg" xmlns:xlink="http://www.w3.org/1999/xlink">
    <!-- Generator: Sketch 48.2 (47327) - http://www.bohemiancoding.com/sketch -->
    <title>Path_6</title>
    <desc>Created with Sketch.</desc>
    <defs></defs>
    <g id="Desktop" stroke="none" stroke-width="1" fill="none" fill-rule="evenodd" transform="translate(-306.000000, -278.000000)">
        <g id="middle-blob" transform="translate(281.000000, 263.000000)" fill="#BCA894" stroke="#000000">
            <path d="M199.454374,16 C288.486517,16 340.13146,38.1529893 374.673947,59.4132919 C400.704643,75.4347345 382.894564,92.1891759 384.937876,102.156028 C386.981189,112.122879 401.761606,94.3295936 407.713339,92.8408789 C424.53524,88.6331952 437,112.040678 437,126.626257 C437,144.560675 437,138.266069 423.175972,152.41832 C409.351943,166.570571 454.624298,236.586147 420.337174,269.121949 C386.05005,301.657751 390.510031,284.755331 384.211872,288.567117 C377.913712,292.378903 389.562231,306.602194 367.704431,306.602194 C345.846631,306.602194 323.37829,313.314932 311.240151,290.778613 C295.021834,260.666817 269.432131,349.589327 199.454374,343.72081 C129.476618,337.852294 119.74676,361.947472 60.9391968,305.122313 C2.13163305,248.297154 35.9924814,257.679914 33.1658959,207.745494 C30.3393104,157.811074 27.1251785,121.254632 49.7337239,92.8408789 C72.3422692,64.4271256 114.704579,78.6651733 144.065284,64.070632 C173.42599,49.4760907 110.422231,16 199.454374,16 Z" id="Path_6"></path>
        </g>
    </g>
</svg>