<?xml version="1.0" encoding="UTF-8"?>
<svg width="573px" height="427px" viewBox="0 0 573 427" version="1.1" xmlns="http://www.w3.org/2000/svg" xmlns:xlink="http://www.w3.org/1999/xlink">
    <!-- Generator: Sketch 48.2 (47327) - http://www.bohemiancoding.com/sketch -->
    <title>Path_9bigger</title>
    <desc>Created with Sketch.</desc>
    <defs></defs>
    <g id="Desktop" stroke="none" stroke-width="1" fill="none" fill-rule="evenodd" transform="translate(-302.000000, -166.000000)">
        <g id="middle-blob-bigger" transform="translate(303.000000, 167.000000)" fill="#E9FF00" stroke="#000000">
            <path d="M240.979191,0 C364.671049,0 436.42108,28.7043307 484.410764,56.2519789 C520.575064,77.01147 495.83162,98.720731 498.670383,111.635097 C501.509145,124.549462 522.043496,101.494138 530.312206,99.5651632 C553.682779,94.113134 571,124.442951 571,143.341949 C571,166.580143 571,158.424022 551.794355,176.761542 C532.588709,195.099063 595.485339,285.820465 547.850429,327.978135 C500.215519,370.135806 506.411747,348.234804 497.661749,353.173856 C488.91175,358.112908 505.094973,376.542476 474.728053,376.542476 C444.361134,376.542476 413.145993,385.240384 396.282546,356.039362 C373.750529,317.022553 338.198897,432.242268 240.979191,424.638245 C143.759486,417.034222 130.24185,448.255108 48.5408306,374.624948 C-33.1601886,300.994788 13.8824986,313.152327 9.95553912,248.450716 C6.02857969,183.749105 1.56320422,136.381764 32.9731297,99.5651632 C64.3830553,62.7485621 123.236775,81.197252 164.027439,62.2866421 C204.818103,43.3760322 117.287334,0 240.979191,0 Z" id="Path_9bigger"></path>
        </g>
    </g>
</svg>