<?xml version="1.0" encoding="UTF-8"?>
<svg width="473px" height="349px" viewBox="0 0 473 349" version="1.1" xmlns="http://www.w3.org/2000/svg" xmlns:xlink="http://www.w3.org/1999/xlink">
    <!-- Generator: Sketch 48.2 (47327) - http://www.bohemiancoding.com/sketch -->
    <title>Path_3bigger</title>
    <desc>Created with Sketch.</desc>
    <defs></defs>
    <g id="Desktop" stroke="none" stroke-width="1" fill="none" fill-rule="evenodd" transform="translate(-371.000000, -209.000000)">
        <g id="middle-blob-bigger" transform="translate(303.000000, 167.000000)" fill="#605242" stroke="#000000">
            <path d="M265.901661,43 C366.969028,43 422.265951,70.0785329 464.807138,88.9291735 C499.43704,104.274204 472.454376,128.681658 481.285971,140.521475 C490.117566,152.361291 507.681656,131.201542 516.643047,121.688555 C525.604439,112.175567 540,137.947465 540,156.921216 C540,175.894967 535.558328,172.351616 519.865589,187.324017 C504.172851,202.296417 555.565051,276.369527 516.643047,310.79084 C477.721044,345.212153 487.838605,324.146273 477.129763,329.967864 C466.420921,335.789454 481.707997,350.443135 456.895494,350.443135 C432.082991,350.443135 408.072794,354.754833 394.293841,330.912493 C375.883158,299.055662 345.3389,395.921453 265.901661,389.712844 C186.464423,383.504236 175.419299,408.995775 108.662222,348.877492 C41.9051451,288.759209 80.3432492,298.685717 77.1345704,245.857504 C73.9258915,193.029291 70.2772784,154.354335 95.942011,124.293952 C121.606744,94.2335682 171.190902,107.90171 204.520541,92.4613873 C237.850181,77.0210651 164.834295,43 265.901661,43 Z" id="Path_3bigger"></path>
        </g>
    </g>
</svg>