<?xml version="1.0" encoding="UTF-8"?>
<svg width="438px" height="350px" viewBox="0 0 438 350" version="1.1" xmlns="http://www.w3.org/2000/svg" xmlns:xlink="http://www.w3.org/1999/xlink">
    <!-- Generator: Sketch 48.2 (47327) - http://www.bohemiancoding.com/sketch -->
    <title>Path_8</title>
    <desc>Created with Sketch.</desc>
    <defs></defs>
    <g id="Desktop" stroke="none" stroke-width="1" fill="none" fill-rule="evenodd" transform="translate(-290.000000, -266.000000)">
        <g id="middle-blob" transform="translate(281.000000, 263.000000)" fill="#000000" stroke="#000000">
            <path d="M194.005127,4 C288.45285,4 343.239213,27.5037814 379.882825,50.0604439 C407.496896,67.0588037 388.603479,84.8348574 390.77108,95.4094439 C392.938682,105.98403 408.618151,87.1057884 414.931912,85.5262984 C432.777043,81.0620486 446,105.896817 446,121.371761 C446,140.399741 446,133.721317 431.335094,148.73651 C416.670188,163.751703 464.696336,238.036522 428.32362,272.556214 C391.950904,307.075907 396.682174,289.142851 390.000915,293.187063 C383.319655,297.231275 395.676722,312.321839 372.489372,312.321839 C349.302022,312.321839 325.466993,319.443891 312.590525,295.533407 C295.385693,263.585525 268.239438,357.930139 194.005127,351.703786 C119.770816,345.477433 109.449118,371.04183 47.064452,310.751722 C-15.3202141,250.461614 20.6002966,260.416494 17.6017777,207.437292 C14.6032587,154.458091 11.19362,115.672598 35.177381,85.5262984 C59.161142,55.3799991 104.100234,70.4862205 135.246871,55.0017681 C166.393508,39.5173158 99.5574035,4 194.005127,4 Z" id="Path_8"></path>
        </g>
    </g>
</svg>