<?xml version="1.0" encoding="UTF-8"?>
<svg width="451px" height="360px" viewBox="0 0 451 360" version="1.1" xmlns="http://www.w3.org/2000/svg" xmlns:xlink="http://www.w3.org/1999/xlink">
    <!-- Generator: Sketch 48.2 (47327) - http://www.bohemiancoding.com/sketch -->
    <title>Path_9</title>
    <desc>Created with Sketch.</desc>
    <defs></defs>
    <g id="Desktop" stroke="none" stroke-width="1" fill="none" fill-rule="evenodd" transform="translate(-280.000000, -262.000000)">
        <g id="middle-blob" transform="translate(281.000000, 263.000000)" fill="#E9FF00" stroke="#000000">
            <path d="M189.491518,0 C286.755344,0 343.175245,24.1791774 380.911441,47.3840199 C409.348868,64.8708383 389.892115,83.1576981 392.124347,94.036152 C394.356578,104.914606 410.503554,85.4938857 417.00557,83.8690081 C435.38278,79.2764752 449,104.824886 449,120.744513 C449,140.319273 449,133.448941 433.897838,148.895605 C418.795675,164.342269 468.253795,240.761709 430.796572,276.273347 C393.339349,311.784985 398.211689,293.336611 391.331217,297.497036 C384.450746,301.657461 397.176257,317.181662 373.297541,317.181662 C349.418825,317.181662 324.873119,324.50837 311.61272,299.910804 C293.894899,267.04488 265.939238,364.100546 189.491518,357.695274 C113.043799,351.290003 102.414344,377.589009 38.1695848,315.566427 C-26.0751746,253.543845 10.9163605,263.784784 7.82843619,209.283191 C4.74051188,154.781599 1.22920962,114.88158 25.9280828,83.8690081 C50.6269559,52.8564358 96.9059752,68.396744 128.981296,52.4673362 C161.056617,36.5379283 92.2276931,0 189.491518,0 Z" id="Path_9"></path>
        </g>
    </g>
</svg>