<?xml version="1.0" encoding="UTF-8"?>
<svg width="515px" height="383px" viewBox="0 0 515 383" version="1.1" xmlns="http://www.w3.org/2000/svg" xmlns:xlink="http://www.w3.org/1999/xlink">
    <!-- Generator: Sketch 48.2 (47327) - http://www.bohemiancoding.com/sketch -->
    <title>Path_5bigger</title>
    <desc>Created with Sketch.</desc>
    <defs></defs>
    <g id="Desktop" stroke="none" stroke-width="1" fill="none" fill-rule="evenodd" transform="translate(-340.000000, -190.000000)">
        <g id="middle-blob-bigger" transform="translate(303.000000, 167.000000)" fill="#4C735C" stroke="#000000">
            <path d="M254.501445,24 C365.629156,24 428.173414,51.6992476 473.206168,74.4294383 C504.117823,90.0320333 490.834541,103.954181 486.755399,120.051865 C482.676257,136.14955 501.046142,129.894841 510.973443,118.489002 C513.955522,115.062782 520.56631,112.763605 525.826182,114.55856 C538.076355,118.738985 551,137.930049 551,152.504884 C551,173.337734 551,166.025838 533.745191,182.465275 C516.490382,198.904711 572.998212,280.235706 530.201874,318.029712 C487.405536,355.823718 498.53021,332.693747 486.755399,339.085753 C474.980588,345.477758 491.789354,361.567246 464.50699,361.567246 C437.224626,361.567246 410.824432,366.301416 395.673908,340.122939 C375.430608,305.144689 341.845944,411.501653 254.501445,404.684708 C167.156946,397.867764 155.01238,425.857033 81.6102383,359.848197 C8.20809673,293.839362 50.4723674,304.738496 46.9442935,246.734032 C43.4162196,188.729567 39.4044199,146.265135 67.6238451,113.259353 C95.8432703,80.2535719 150.363084,95.2609549 187.010389,78.3077481 C223.657693,61.3545412 143.373734,24 254.501445,24 Z" id="Path_5bigger"></path>
        </g>
    </g>
</svg>