<?xml version="1.0" encoding="UTF-8"?>
<svg width="396px" height="316px" viewBox="0 0 396 316" version="1.1" xmlns="http://www.w3.org/2000/svg" xmlns:xlink="http://www.w3.org/1999/xlink">
    <!-- Generator: Sketch 48.2 (47327) - http://www.bohemiancoding.com/sketch -->
    <title>Path_4</title>
    <desc>Created with Sketch.</desc>
    <defs></defs>
    <g id="Desktop" stroke="none" stroke-width="1" fill="none" fill-rule="evenodd" transform="translate(-315.000000, -285.000000)">
        <g id="middle-blob" transform="translate(281.000000, 263.000000)" fill="#FF3838" stroke="#000000">
            <path d="M201.279862,23 C286.629411,23 334.750073,45.7292855 369.251911,64.5612694 C392.384246,77.1874886 383.075682,89.5578099 379.064181,106.367609 C375.05268,123.177408 394.176785,113.91199 402.444989,102.066531 C410.713194,90.2210724 429,112.690759 429,128.906912 C429,146.076243 429,140.050166 415.747768,153.598678 C402.495537,167.14719 445.895313,234.175883 413.026391,265.323699 C380.157469,296.471516 388.701564,277.40902 379.658143,282.676972 C370.614721,287.944924 383.524377,301.205027 362.570671,301.205027 C341.616965,301.205027 321.340791,305.106679 309.704717,283.531766 C294.157231,254.704547 268.363162,342.358317 201.279862,336.740153 C134.196563,331.121989 124.869157,354.189261 68.4940232,299.788278 C12.1188891,245.387295 44.5791671,254.369784 41.8694963,206.56558 C39.1598256,158.761376 36.0786383,123.764442 57.752037,96.5628266 C79.4254357,69.3612115 121.298353,81.7295009 149.444626,67.7575666 C177.590899,53.7856324 115.930314,23 201.279862,23 Z" id="Path_4"></path>
        </g>
    </g>
</svg>