<?xml version="1.0" encoding="UTF-8"?>
<svg width="464px" height="342px" viewBox="0 0 464 342" version="1.1" xmlns="http://www.w3.org/2000/svg" xmlns:xlink="http://www.w3.org/1999/xlink">
    <!-- Generator: Sketch 48.2 (47327) - http://www.bohemiancoding.com/sketch -->
    <title>Path_2bigger</title>
    <desc>Created with Sketch.</desc>
    <defs></defs>
    <g id="Desktop" stroke="none" stroke-width="1" fill="none" fill-rule="evenodd" transform="translate(-373.000000, -213.000000)">
        <g id="middle-blob-bigger" transform="translate(303.000000, 167.000000)" fill="#D7E4CD" stroke="#000000">
            <path d="M263.451713,47 C353.149718,47 416.282193,73.5332618 457.861957,92.0043135 C491.709228,107.040347 475.379194,114.05453 475.379194,139.328133 C475.379194,152.854351 492.853203,153.503944 509.933692,129.792877 C527.01418,106.08181 533,153.629081 533,159.171892 C533,177.763575 527.01418,173.746907 511.676095,188.417814 C496.33801,203.08872 546.568754,275.670245 508.526382,309.398428 C470.48401,343.12661 483.653593,316.348464 473.18677,322.052827 C462.719946,327.75719 474.380858,346.718142 450.129114,346.718142 C425.87737,346.718142 405.690478,347.874785 392.222927,324.51255 C374.228322,293.297209 341.093682,392.814795 263.451713,386.731207 C185.809744,380.64762 175.014239,405.625844 109.765862,346.718142 C44.5174847,287.81044 82.0868935,297.537062 78.9507303,245.772632 C75.8145671,194.008203 72.2484121,156.112031 97.3331256,126.656963 C122.417839,97.2018954 165.779264,113.53296 203.457798,95.4654004 C241.136331,77.3978405 173.753709,47 263.451713,47 Z" id="Path_2bigger"></path>
        </g>
    </g>
</svg>