<?xml version="1.0" encoding="UTF-8"?>
<svg width="116px" height="144px" viewBox="0 0 116 144" version="1.1" xmlns="http://www.w3.org/2000/svg" xmlns:xlink="http://www.w3.org/1999/xlink">
    <!-- Generator: Sketch 48.2 (47327) - http://www.bohemiancoding.com/sketch -->
    <title>Path_2</title>
    <desc>Created with Sketch.</desc>
    <defs></defs>
    <g id="Desktop" stroke="none" stroke-width="1" fill="none" fill-rule="evenodd" transform="translate(-2.000000, -732.000000)">
        <g id="blob-6" transform="translate(66.178568, 794.987558) rotate(84.000000) translate(-66.178568, -794.987558) translate(-20.321432, 722.987558)" fill="#CCB005" stroke="#000000">
            <path d="M65.794383,41.7241999 C79.3631735,25.9820179 92.4483029,23.1002346 104.262288,23.1002346 C116.076273,23.1002346 134.991223,37.4676329 131.999871,64.7142462 C129.008519,91.9608596 102.428988,88.0086736 111.559798,113.819853 C120.690609,139.631032 137.667338,104.554348 155.117772,109.613485 C165.522887,112.630081 162.697443,127.54613 152.902942,142.140119 C143.23417,141.12389 23.1172776,128.499096 18.1828702,127.980469 C17.7517577,127.935157 18.1665104,124.910703 18.3699926,122.750395 C21.9419546,84.8279525 52.2255925,57.4663819 65.794383,41.7241999 Z" id="Path_2"></path>
        </g>
    </g>
</svg>