<?xml version="1.0" encoding="UTF-8"?>
<svg width="132px" height="162px" viewBox="0 0 132 162" version="1.1" xmlns="http://www.w3.org/2000/svg" xmlns:xlink="http://www.w3.org/1999/xlink">
    <!-- Generator: Sketch 48.2 (47327) - http://www.bohemiancoding.com/sketch -->
    <title>Path_4</title>
    <desc>Created with Sketch.</desc>
    <defs></defs>
    <g id="Desktop" stroke="none" stroke-width="1" fill="none" fill-rule="evenodd" transform="translate(-2.000000, -720.000000)">
        <g id="blob-6" transform="translate(66.178568, 794.987558) rotate(84.000000) translate(-66.178568, -794.987558) translate(-20.321432, 722.987558)" fill="#FF3838" stroke="#000000">
            <path d="M61.6801083,28.2605484 C77.3665835,9.9517063 92.4939124,6.60006702 106.151709,6.60006702 C119.809507,6.60006702 141.676518,23.3099759 138.218304,54.9989719 C134.760091,86.6879679 111.658088,89.1788848 120.122249,107.175045 C128.586409,125.171205 139.529797,92.8360096 159.703725,98.7200064 C171.880042,102.271392 170.29316,123.099341 160.146446,142.723887 C134.156021,140.279702 36.7525323,130.042182 6.6065262,126.873709 C6.62901148,125.490415 6.71042132,124.032993 6.85418084,122.497536 C10.98362,78.3920868 45.9936331,46.5693906 61.6801083,28.2605484 Z" id="Path_4"></path>
        </g>
    </g>
</svg>