<?xml version="1.0" encoding="UTF-8"?>
<svg width="94px" height="120px" viewBox="0 0 94 120" version="1.1" xmlns="http://www.w3.org/2000/svg" xmlns:xlink="http://www.w3.org/1999/xlink">
    <!-- Generator: Sketch 48.2 (47327) - http://www.bohemiancoding.com/sketch -->
    <title>Path_1</title>
    <desc>Created with Sketch.</desc>
    <defs></defs>
    <g id="Desktop" stroke="none" stroke-width="1" fill="none" fill-rule="evenodd" transform="translate(-2.000000, -748.000000)">
        <g id="blob-6" transform="translate(66.178568, 794.987558) rotate(84.000000) translate(-66.178568, -794.987558) translate(-20.321432, 722.987558)" fill="#D7E4CD" stroke="#000000">
            <path d="M71.1523864,59.5305984 C81.5479534,46.8684085 91.5729692,44.5504524 100.624113,44.5504524 C109.675257,44.5504524 130.437642,56.9340375 121.874931,78.0225922 C113.312221,99.1111468 102.31434,96.1034862 108.333454,117.270404 C114.352569,138.437323 138.526333,106.470918 149.956966,116.546642 C156.524218,122.335458 155.262578,129.22769 138.624974,140.859568 C123.696586,139.290531 60.083696,132.604547 34.6930291,129.93588 C34.6095525,128.356658 34.6470302,126.617922 34.8187553,124.703842 C37.5553715,94.2010081 60.7568194,72.1927883 71.1523864,59.5305984 Z" id="Path_1"></path>
        </g>
    </g>
</svg>