<?xml version="1.0" encoding="UTF-8"?>
<svg width="122px" height="150px" viewBox="0 0 122 150" version="1.1" xmlns="http://www.w3.org/2000/svg" xmlns:xlink="http://www.w3.org/1999/xlink">
    <!-- Generator: Sketch 48.2 (47327) - http://www.bohemiancoding.com/sketch -->
    <title>Path_3</title>
    <desc>Created with Sketch.</desc>
    <defs></defs>
    <g id="Desktop" stroke="none" stroke-width="1" fill="none" fill-rule="evenodd" transform="translate(-2.000000, -727.000000)">
        <g id="blob-6" transform="translate(66.178568, 794.987558) rotate(84.000000) translate(-66.178568, -794.987558) translate(-20.321432, 722.987558)" fill="#4C735C" stroke="#000000">
            <path d="M63.7433516,36.7436081 C78.1377659,19.6325407 92.0190894,16.5001675 104.551923,16.5001675 C117.084757,16.5001675 137.15063,32.1169048 133.977262,61.7327889 C130.803894,91.348673 106.489886,91.1643969 115.14479,112.66636 C123.799694,134.168323 137.388651,102.178195 155.900897,107.677258 C166.392853,110.793893 165.039527,126.514538 156.598209,142.390268 C134.348602,140.121984 36.5305448,129.840892 13.2535059,127.394376 C13.2920689,126.562072 13.3517584,125.702754 13.4333171,124.815559 C17.2226232,83.5955131 49.3489374,53.8546755 63.7433516,36.7436081 Z" id="Path_3"></path>
        </g>
    </g>
</svg>